<svg xmlns="http://www.w3.org/2000/svg" xmlns:xlink="http://www.w3.org/1999/xlink" viewBox="0 0 40 40">
  <path fill-rule="evenodd" d="M13.7935 12.2571c-.3905-.3905-1.0237-.3905-1.4142 0l-.1222.1222c-.3905.3905-.3905 1.0237 0 1.4142L18.4636 20l-6.2065 6.2065c-.3905.3905-.3905 1.0237 0 1.4142l.1222.1222c.3905.3905 1.0237.3905 1.4142 0L20 21.5364l6.2065 6.2065c.3905.3905 1.0237.3905 1.4142 0l.1222-.1222c.3905-.3905.3905-1.0237 0-1.4142L21.5364 20l6.2065-6.2065c.3905-.3905.3905-1.0237 0-1.4142l-.1222-.1222c-.3905-.3905-1.0237-.3905-1.4142 0L20 18.4636l-6.2065-6.2065Z" clip-rule="evenodd"/>
</svg>
